<!DOCTYPE svg PUBLIC "-//W3C//DTD SVG 1.1//EN" "http://www.w3.org/Graphics/SVG/1.1/DTD/svg11.dtd">
<!-- Uploaded to: SVG Repo, www.svgrepo.com, Transformed by: SVG Repo Mixer Tools -->
<svg height="800px" width="800px" version="1.1" id="Layer_1" xmlns="http://www.w3.org/2000/svg" xmlns:xlink="http://www.w3.org/1999/xlink" viewBox="0 0 512.001 512.001" xml:space="preserve" fill="#000000">
<g id="SVGRepo_bgCarrier" stroke-width="0"/>
<g id="SVGRepo_tracerCarrier" stroke-linecap="round" stroke-linejoin="round"/>
<g id="SVGRepo_iconCarrier"> <path style="fill:#445181;" d="M458.345,309.657H281.293v-75.879c0-13.97-11.325-25.293-25.293-25.293 c-13.968,0-25.293,11.323-25.293,25.293v75.879H53.656c-13.968,0-25.293,11.323-25.293,25.293v151.758 c0,13.967,11.325,25.293,25.293,25.293H256h202.344c13.969,0,25.293-11.326,25.293-25.293V334.95 C483.638,320.979,472.313,309.657,458.345,309.657z"/> <path style="fill:#9AB1FF;" d="M362.287,257.796c4.939,4.941,11.412,7.411,17.884,7.411c6.472,0,12.947-2.47,17.886-7.409 c33.441-33.441,51.857-77.901,51.857-125.194S431.497,40.849,398.056,7.408c-9.876-9.878-25.892-9.878-35.769,0 s-9.878,25.892,0,35.771c23.887,23.887,37.041,55.645,37.041,89.424s-13.154,65.538-37.041,89.423 C352.407,231.904,352.407,247.92,362.287,257.796z"/> <path style="fill:#9AB1FF;" d="M149.712,7.408c-9.876-9.878-25.892-9.878-35.769,0C80.502,40.849,62.086,85.311,62.086,132.604 s18.417,91.753,51.857,125.194c4.939,4.939,11.412,7.409,17.884,7.409c6.473,0,12.947-2.47,17.884-7.411 c9.878-9.876,9.878-25.892,0-35.769c-23.885-23.885-37.037-55.643-37.037-89.423s13.154-65.538,37.041-89.424 C159.592,33.302,159.592,17.288,149.712,7.408z"/> <path style="fill:#9AB1FF;" d="M290.746,186.259c4.939,4.939,11.412,7.409,17.886,7.409c6.473,0,12.947-2.47,17.884-7.409 c14.333-14.333,22.226-33.387,22.226-53.655c0-20.266-7.893-39.322-22.226-53.655c-9.876-9.876-25.892-9.876-35.769,0 c-9.878,9.878-9.878,25.892,0,35.771c4.777,4.777,7.409,11.129,7.409,17.884c0,6.757-2.632,13.109-7.409,17.886 C280.868,160.367,280.868,176.381,290.746,186.259z"/> <path style="fill:#9AB1FF;" d="M221.255,78.951c-9.879-9.878-25.893-9.878-35.771-0.002c-14.333,14.331-22.228,33.387-22.228,53.655 s7.895,39.324,22.228,53.655c4.941,4.939,11.411,7.409,17.884,7.409s12.948-2.47,17.886-7.411 c9.878-9.876,9.876-25.892-0.002-35.769c-4.779-4.777-7.411-11.129-7.411-17.886c0-6.755,2.632-13.107,7.411-17.884 C231.131,104.842,231.132,88.828,221.255,78.951z"/> <path style="fill:#1E3380;" d="M28.363,334.95v151.758c0,13.967,11.325,25.293,25.293,25.293H256V208.485 c-13.968,0-25.293,11.323-25.293,25.293v75.879H53.656C39.686,309.657,28.363,320.979,28.363,334.95z"/> </g>
</svg>